<?xml version="1.0" ?><svg height="60px" version="1.1" viewBox="0 0 60 60" width="60px" xmlns="http://www.w3.org/2000/svg" xmlns:sketch="http://www.bohemiancoding.com/sketch/ns" xmlns:xlink="http://www.w3.org/1999/xlink"><title/><desc/><defs/><g fill="none" fill-rule="evenodd" id="soical" stroke="none" stroke-width="1"><g id="social" transform="translate(-373.000000, -638.000000)"><g id="slices" transform="translate(173.000000, 138.000000)"/><g fill="#000000" id="square-black" transform="translate(173.000000, 138.000000)"><path d="M202.995937,500 L257.004063,500 C258.658673,500 260,501.33731 260,502.995937 L260,557.004063 C260,558.658673 258.66269,560 257.004063,560 L202.995937,560 C201.341327,560 200,558.66269 200,557.004063 L200,502.995937 C200,501.341327 201.33731,500 202.995937,500 Z" id="square-53"/></g><g fill="#FFFFFF" id="icon" transform="translate(182.000000, 150.000000)"><path d="M223.884615,505.307692 C219.562308,505.307692 215.825,507.809231 214.04,511.443846 C213.195385,510.510385 211.973462,509.923077 210.615385,509.923077 C208.066538,509.923077 206,511.989615 206,514.538462 C206,515.204231 206.140769,515.836538 206.393462,516.407692 C204.108846,517.538462 202.538462,519.893462 202.538462,522.615385 C202.538462,526.045769 205.033077,528.893462 208.307692,529.442692 L208.307692,529.538462 L209.461538,529.538462 L232.538462,529.538462 L233.692308,529.538462 L233.692308,529.442692 C236.966923,528.893462 239.461538,526.045769 239.461538,522.615385 C239.461538,519.600385 237.534615,517.035385 234.843846,516.085769 C234.746923,510.115769 229.876538,505.307692 223.884615,505.307692 L223.884615,505.307692 L223.884615,505.307692 Z" id="cloud"/></g></g></g></svg>